<svg id="Layer_1" data-name="Layer 1" xmlns="http://www.w3.org/2000/svg" viewBox="0 0 331.62 217.68">
  <defs>
    <style>
      .cls-1 {
        fill: #fff;
      }
    </style>
  </defs>
  <g>
    <path class="cls-1" d="M85.14,90.43a5.21,5.21,0,0,0,1.58-.21,3.19,3.19,0,0,0,1.1-.58,2.66,2.66,0,0,0,.7-.87,5.27,5.27,0,0,0,.4-1.14L90,83.14a9.43,9.43,0,0,1,.9-2.35,5.19,5.19,0,0,1,1.48-1.68,6.44,6.44,0,0,1,2.28-1,14.39,14.39,0,0,1,3.23-.32h.59l-.86,3.54h-.74a3.86,3.86,0,0,0-1.21.16,2.15,2.15,0,0,0-.82.48,2.28,2.28,0,0,0-.52.76,4.94,4.94,0,0,0-.31,1l-.92,4a11.61,11.61,0,0,1-.42,1.43A4.92,4.92,0,0,1,92,90.37a4.27,4.27,0,0,1-1.06,1,7.18,7.18,0,0,1-1.62.81,3.05,3.05,0,0,1,1.43,1.14,3.11,3.11,0,0,1,.38,1.54,9.39,9.39,0,0,1-.23,1.78l-.93,4a5,5,0,0,0-.18,1.19,1.09,1.09,0,0,0,.42,1,2.75,2.75,0,0,0,1.43.28h.74l-.86,3.54H91a8,8,0,0,1-4-.82,3.18,3.18,0,0,1-1.38-3,11.13,11.13,0,0,1,.33-2.35l.86-3.69a2.52,2.52,0,0,0-.24-2.11,2.76,2.76,0,0,0-2.23-.69Z"/>
    <path class="cls-1" d="M101.84,91.09q1.78-1.44,3.36-2.92c1-1,2-1.9,2.7-2.74h5q-1.66,1.84-3.46,3.62c-1.2,1.18-2.58,2.43-4.12,3.76a21.05,21.05,0,0,1,1.26,1.79c.43.67.83,1.38,1.22,2.11s.74,1.48,1.07,2.23.6,1.47.82,2.14h-4.94c-.18-.51-.4-1.08-.67-1.69s-.56-1.23-.89-1.83-.67-1.2-1-1.77a17.33,17.33,0,0,0-1.07-1.55l-1.67,6.84H95l5.36-22.37L105,78Z"/>
    <path class="cls-1" d="M122.28,85.17a5.86,5.86,0,0,1,2.2.37,4,4,0,0,1,1.52,1,4.49,4.49,0,0,1,.89,1.59,6.43,6.43,0,0,1,.3,2,10.25,10.25,0,0,1-.3,2.47l-2,8.45h-4.43l2-8.27c.08-.34.16-.69.23-1.07a5.84,5.84,0,0,0,.1-1.07,2.13,2.13,0,0,0-.4-1.32,1.79,1.79,0,0,0-1.53-.55,8.76,8.76,0,0,0-.91,0c-.29,0-.57.09-.85.15l-2.88,12.08h-4.44l5.36-22.37,4.61-.72-1.81,7.47q.59-.12,1.2-.21A10,10,0,0,1,122.28,85.17Z"/>
    <path class="cls-1" d="M143.19,94.33a10.07,10.07,0,0,0-.24,3.41,12.21,12.21,0,0,0,.69,3.05l-4,.56c-.12-.24-.23-.46-.33-.68s-.19-.47-.29-.75a7.58,7.58,0,0,1-1.85,1.13,5.49,5.49,0,0,1-2.26.45,5.64,5.64,0,0,1-2.54-.52,4.78,4.78,0,0,1-1.73-1.4,5.56,5.56,0,0,1-1-2,10.68,10.68,0,0,1-.29-2.52,10.19,10.19,0,0,1,.73-3.86,9.76,9.76,0,0,1,2-3.17,9.37,9.37,0,0,1,3.05-2.13,9.27,9.27,0,0,1,3.81-.77l.93,0c.45,0,1,.06,1.54.13a14.61,14.61,0,0,1,1.81.34,9.4,9.4,0,0,1,1.82.66Zm-3.09-5.48-.7-.08c-.21,0-.46,0-.76,0a3.71,3.71,0,0,0-1.89.5,5.38,5.38,0,0,0-1.53,1.33,6.21,6.21,0,0,0-1,1.88,6.75,6.75,0,0,0-.37,2.24A4.54,4.54,0,0,0,134.3,97a1.84,1.84,0,0,0,1.75.83,2.79,2.79,0,0,0,1.24-.27,4.47,4.47,0,0,0,1.17-.89c0-.5.11-1,.2-1.56s.18-1,.28-1.5Z"/>
    <path class="cls-1" d="M152.51,101.38a8.09,8.09,0,0,1-3.32-.55,3.59,3.59,0,0,1-1.73-1.5,4.48,4.48,0,0,1-.5-2.19,12.09,12.09,0,0,1,.34-2.63l3.78-15.8,4.61-.72-4.14,17.14a5.39,5.39,0,0,0-.13,1,1.52,1.52,0,0,0,.16.78,1.27,1.27,0,0,0,.61.55,3.45,3.45,0,0,0,1.21.27Z"/>
    <path class="cls-1" d="M159.8,101.08h-4.41l3.72-15.65h4.43Zm2.14-17.55a2.72,2.72,0,0,1-1.67-.55,2,2,0,0,1-.74-1.68,2.78,2.78,0,0,1,.25-1.18,3.13,3.13,0,0,1,1.64-1.59,2.88,2.88,0,0,1,1.17-.24,2.79,2.79,0,0,1,1.67.55,2,2,0,0,1,.74,1.68,2.78,2.78,0,0,1-.25,1.18,3.08,3.08,0,0,1-.67,1,3.21,3.21,0,0,1-1,.64A2.88,2.88,0,0,1,161.94,83.53Z"/>
    <path class="cls-1" d="M170.27,101.5a5.86,5.86,0,0,1-2.55-.51A4.58,4.58,0,0,1,166,99.61a5.57,5.57,0,0,1-1-2A9.72,9.72,0,0,1,164.7,95a10.22,10.22,0,0,1,.73-3.82,9.94,9.94,0,0,1,2-3.14,9.38,9.38,0,0,1,6.87-2.88c.36,0,.69,0,1,0a8.17,8.17,0,0,1,.94.18l1.61-6.72,4.61-.72-3.93,16.34a9.82,9.82,0,0,0-.24,3.41,12.21,12.21,0,0,0,.69,3.05l-4,.56c-.12-.24-.23-.46-.33-.68s-.2-.47-.3-.75a7.4,7.4,0,0,1-1.85,1.13A5.66,5.66,0,0,1,170.27,101.5ZM175.39,89l-.32-.06-.26,0-.35,0h-.53a4,4,0,0,0-1.94.5,4.81,4.81,0,0,0-1.53,1.32,6.66,6.66,0,0,0-1.35,4A4.3,4.3,0,0,0,169.6,97a1.89,1.89,0,0,0,1.77.82,2.86,2.86,0,0,0,1.25-.27,4.37,4.37,0,0,0,1.19-.89c0-.5.1-1,.19-1.56s.19-1,.29-1.5Z"/>
    <path class="cls-1" d="M105.79,124.08a9.82,9.82,0,0,0-.24,3.41,12.11,12.11,0,0,0,.69,3l-4,.57q-.18-.36-.33-.69a6.74,6.74,0,0,1-.29-.74,8.26,8.26,0,0,1-1.85,1.13,5.49,5.49,0,0,1-2.26.44,5.64,5.64,0,0,1-2.54-.52,4.76,4.76,0,0,1-1.73-1.39,5.61,5.61,0,0,1-1-2.06,10.6,10.6,0,0,1-.29-2.51,10.21,10.21,0,0,1,.73-3.87,9.76,9.76,0,0,1,2-3.17,9.34,9.34,0,0,1,6.86-2.9l.93,0c.45,0,1,.06,1.54.13a14.72,14.72,0,0,1,1.81.35,8.76,8.76,0,0,1,1.82.65Zm-3.09-5.47-.7-.09c-.21,0-.46,0-.76,0a3.7,3.7,0,0,0-1.89.51,5.07,5.07,0,0,0-1.53,1.32,6.39,6.39,0,0,0-1,1.89,6.69,6.69,0,0,0-.37,2.23,4.52,4.52,0,0,0,.48,2.26,1.83,1.83,0,0,0,1.75.84,2.79,2.79,0,0,0,1.24-.27,4.71,4.71,0,0,0,1.17-.9c0-.49.11-1,.19-1.56s.19-1,.29-1.5Z"/>
    <path class="cls-1" d="M125.64,115.19c-.56,1.51-1.12,2.91-1.68,4.22s-1.16,2.56-1.77,3.74-1.25,2.3-1.91,3.37-1.35,2.14-2.08,3.19c-.54.77-1.09,1.55-1.67,2.35a13.09,13.09,0,0,1-1.92,2.14,9,9,0,0,1-2.35,1.55,7.19,7.19,0,0,1-3,.59,6.6,6.6,0,0,1-3.18-.71l1.34-3.48a10.64,10.64,0,0,0,1.07.37,4.31,4.31,0,0,0,1.16.13,3.35,3.35,0,0,0,2-.67,5.3,5.3,0,0,0,1.56-1.8q-.78-3-1.41-6.66a69.74,69.74,0,0,1-.88-8.33h4.55c0,.77.06,1.62.12,2.56s.13,1.87.21,2.81.17,1.86.27,2.75.21,1.7.32,2.41A27.44,27.44,0,0,0,118.9,121q1.08-2.62,2-5.77Z"/>
    <path class="cls-1" d="M132.12,131.25a7.09,7.09,0,0,1-2.73-.47,5,5,0,0,1-1.92-1.34,5.75,5.75,0,0,1-1.15-2,8.21,8.21,0,0,1-.38-2.6,11.4,11.4,0,0,1,.58-3.57,10.07,10.07,0,0,1,1.71-3.22,9,9,0,0,1,2.76-2.33,7.55,7.55,0,0,1,3.75-.91,7.14,7.14,0,0,1,2.72.48,4.93,4.93,0,0,1,1.94,1.34,5.71,5.71,0,0,1,1.15,2,8.61,8.61,0,0,1,.38,2.61,12,12,0,0,1-.56,3.57A10.44,10.44,0,0,1,138.7,128a8.81,8.81,0,0,1-2.75,2.34A7.88,7.88,0,0,1,132.12,131.25Zm2.21-12.73a2.77,2.77,0,0,0-1.73.57,4.78,4.78,0,0,0-1.25,1.42,7.13,7.13,0,0,0-.76,1.89,8.15,8.15,0,0,0-.25,1.95,4.82,4.82,0,0,0,.47,2.34,1.85,1.85,0,0,0,1.73.82,2.77,2.77,0,0,0,1.73-.57,5,5,0,0,0,1.25-1.43,6.85,6.85,0,0,0,.75-1.89,8.06,8.06,0,0,0,.26-2,4.63,4.63,0,0,0-.48-2.33A1.81,1.81,0,0,0,134.33,118.52Zm-.51-11.46,4,4.91-1.91,1.73-4.85-4.29Z"/>
    <path class="cls-1" d="M152.51,114.86a5.59,5.59,0,0,1,2.47.51,4.82,4.82,0,0,1,1.72,1.36,5.69,5.69,0,0,1,1,2,9.05,9.05,0,0,1,.33,2.5,9.94,9.94,0,0,1-.76,3.88,9.82,9.82,0,0,1-2.07,3.18,9.49,9.49,0,0,1-7,2.93h-.94c-.44,0-.95-.06-1.53-.13a18.37,18.37,0,0,1-1.83-.36,9.49,9.49,0,0,1-1.83-.66l5.15-21.63,4.61-.71L150,115.43a6.75,6.75,0,0,1,1.19-.42A5.17,5.17,0,0,1,152.51,114.86Zm-3.87,12.74a4,4,0,0,0,2-.51,5.16,5.16,0,0,0,1.59-1.35,6.9,6.9,0,0,0,1.06-1.92,6.52,6.52,0,0,0,.39-2.24,4.37,4.37,0,0,0-.48-2.23,1.87,1.87,0,0,0-1.75-.8,5.25,5.25,0,0,0-1.09.15,2.75,2.75,0,0,0-1.21.62l-2,8.16.31.06.29,0,.35,0Z"/>
    <path class="cls-1" d="M173.9,124.08a9.82,9.82,0,0,0-.24,3.41,12.11,12.11,0,0,0,.69,3l-4,.57q-.18-.36-.33-.69c-.1-.22-.2-.46-.3-.74a8.19,8.19,0,0,1-1.84,1.13,5.52,5.52,0,0,1-2.26.44,5.72,5.72,0,0,1-2.55-.52,4.72,4.72,0,0,1-1.72-1.39,5.61,5.61,0,0,1-1-2.06,10.1,10.1,0,0,1-.3-2.51,10.4,10.4,0,0,1,.73-3.87,9.79,9.79,0,0,1,2-3.17,9.29,9.29,0,0,1,6.85-2.9l.94,0c.45,0,1,.06,1.53.13a14.86,14.86,0,0,1,1.82.35,8.67,8.67,0,0,1,1.81.65Zm-3.1-5.47-.69-.09c-.21,0-.47,0-.76,0a3.67,3.67,0,0,0-1.89.51,5.23,5.23,0,0,0-1.54,1.32,6.6,6.6,0,0,0-1,1.89,6.69,6.69,0,0,0-.37,2.23,4.52,4.52,0,0,0,.47,2.26,1.84,1.84,0,0,0,1.76.84,2.74,2.74,0,0,0,1.23-.27,4.56,4.56,0,0,0,1.18-.9c0-.49.1-1,.19-1.56s.19-1,.28-1.5Zm4-9-5.26,4-1.79-1.85,4.76-4.79Z"/>
    <path class="cls-1" d="M180.33,115.9c.33-.1.7-.21,1.08-.34a13.41,13.41,0,0,1,1.31-.36,15.59,15.59,0,0,1,1.64-.27c.6-.06,1.3-.1,2.1-.1a6.62,6.62,0,0,1,2.36.36,5.13,5.13,0,0,1,1.71,1.07,14.87,14.87,0,0,1,2.19-1,7.24,7.24,0,0,1,2.54-.4,6.88,6.88,0,0,1,2.4.37,4.41,4.41,0,0,1,1.65,1.07,4.26,4.26,0,0,1,.95,1.67,7.12,7.12,0,0,1,.3,2.13,9.23,9.23,0,0,1-.08,1.13,9.94,9.94,0,0,1-.22,1.19l-2,8.45H193.8l2-8.27c.06-.28.12-.59.19-.94a5.23,5.23,0,0,0,.11-1,2.63,2.63,0,0,0-.39-1.44,1.66,1.66,0,0,0-1.52-.61,3.22,3.22,0,0,0-1.19.22c-.38.15-.71.31-1,.46a1.86,1.86,0,0,1,.06.45v.39c0,.35,0,.73-.07,1.13a10,10,0,0,1-.23,1.19l-2,8.45h-4.43l2-8.27c.06-.28.12-.59.19-.94a5.23,5.23,0,0,0,.11-1,2.63,2.63,0,0,0-.39-1.44,1.66,1.66,0,0,0-1.52-.61,6.07,6.07,0,0,0-.8,0c-.22,0-.48.08-.77.14l-2.89,12.11h-4.43Z"/>
    <path class="cls-1" d="M206.3,130.84h-4.4l3.72-15.65h4.43Zm2.14-17.56a2.69,2.69,0,0,1-1.66-.55,1.93,1.93,0,0,1-.75-1.68,2.74,2.74,0,0,1,.26-1.17,3,3,0,0,1,.67-1,3.36,3.36,0,0,1,1-.64,3.1,3.1,0,0,1,1.18-.23,2.69,2.69,0,0,1,1.66.55,1.93,1.93,0,0,1,.75,1.68,2.74,2.74,0,0,1-.26,1.17,3.1,3.1,0,0,1-.66,1,3.41,3.41,0,0,1-1,.64A3.1,3.1,0,0,1,208.44,113.28Z"/>
    <path class="cls-1" d="M220.37,123.7a5.14,5.14,0,0,0-1.57.21,3,3,0,0,0-1.1.58,2.66,2.66,0,0,0-.7.87,4.86,4.86,0,0,0-.4,1.13l-1.08,4.5a9,9,0,0,1-.89,2.35,5.22,5.22,0,0,1-1.49,1.68,6.31,6.31,0,0,1-2.27,1,14.45,14.45,0,0,1-3.23.32H207l.87-3.54h.74a4.14,4.14,0,0,0,1.22-.15,1.88,1.88,0,0,0,.79-.46,2.35,2.35,0,0,0,.51-.77,8.86,8.86,0,0,0,.34-1.06l.92-4a12,12,0,0,1,.42-1.42,4.34,4.34,0,0,1,.65-1.22,4.49,4.49,0,0,1,1.06-1,7.18,7.18,0,0,1,1.62-.8,3.06,3.06,0,0,1-1.43-1.14,3,3,0,0,1-.39-1.54,8.76,8.76,0,0,1,.24-1.78l.92-4a5,5,0,0,0,.18-1.19,1.1,1.1,0,0,0-.41-1,2.77,2.77,0,0,0-1.43-.28h-.75l.87-3.54h.59a7.88,7.88,0,0,1,4,.82,3.16,3.16,0,0,1,1.39,3,11.22,11.22,0,0,1-.33,2.35l-.86,3.69a2.52,2.52,0,0,0,.24,2.11,2.74,2.74,0,0,0,2.23.69Z"/>
  </g>
</svg>
