<svg id="Layer_1" data-name="Layer 1" xmlns="http://www.w3.org/2000/svg" viewBox="0 0 460.62 217.68">
  <defs>
    <style>
      .cls-1 {
        fill: #231f20;
      }
    </style>
  </defs>
  <g>
    <path class="cls-1" d="M63.06,92.22a12.22,12.22,0,0,1,5.7,1.28,9.23,9.23,0,0,1,3.81,3.67A11.7,11.7,0,0,1,73.92,103a11.85,11.85,0,0,1-1.38,5.83,9.92,9.92,0,0,1-3.86,3.9,11.27,11.27,0,0,1-5.65,1.4,12.22,12.22,0,0,1-5.7-1.28,9.15,9.15,0,0,1-3.81-3.69,13,13,0,0,1,0-11.63,10,10,0,0,1,3.85-3.9A11.24,11.24,0,0,1,63.06,92.22Zm-.12.53a3.55,3.55,0,0,0-2.74,1.34,9.49,9.49,0,0,0-1.8,3.69,21.18,21.18,0,0,0-.64,5.45,18.74,18.74,0,0,0,.72,5.49,8.54,8.54,0,0,0,2,3.6,3.74,3.74,0,0,0,2.72,1.26,3.53,3.53,0,0,0,2.75-1.34,9.08,9.08,0,0,0,1.8-3.7,21.21,21.21,0,0,0,.63-5.43,18.6,18.6,0,0,0-.73-5.5A9,9,0,0,0,65.65,94,3.73,3.73,0,0,0,62.94,92.75Z"/>
    <path class="cls-1" d="M87.19,97.87a5.57,5.57,0,0,1,2.1.33,3.15,3.15,0,0,1,1.2.83,3.62,3.62,0,0,1,.7,1.46,10.26,10.26,0,0,1,.23,2.41v8a2.59,2.59,0,0,0,.4,1.69,1.79,1.79,0,0,0,1.38.45v.62l-1.77-.07c-.78,0-1.54,0-2.28,0s-1.59,0-2.35,0l-1.69.07v-.62a1.35,1.35,0,0,0,1.16-.45,3,3,0,0,0,.33-1.69v-9.47a4,4,0,0,0-.15-1.17,1.37,1.37,0,0,0-.51-.75,1.81,1.81,0,0,0-1-.25,2.37,2.37,0,0,0-1.27.36,2.62,2.62,0,0,0-.92,1,3,3,0,0,0-.34,1.44v8.84a3,3,0,0,0,.33,1.69,1.33,1.33,0,0,0,1.16.45v.62l-1.64-.07c-.71,0-1.44,0-2.17,0s-1.63,0-2.44,0l-1.85.07v-.62a1.8,1.8,0,0,0,1.39-.45,2.59,2.59,0,0,0,.4-1.69v-9.41a3.93,3.93,0,0,0-.39-2,1.51,1.51,0,0,0-1.4-.64v-.62c.64.06,1.25.09,1.85.09.89,0,1.74,0,2.54-.11A18.87,18.87,0,0,0,82.4,98v2.41a4.18,4.18,0,0,1,1.95-1.93A6.7,6.7,0,0,1,87.19,97.87Z"/>
    <path class="cls-1" d="M100.82,98v13a2.59,2.59,0,0,0,.4,1.69,1.79,1.79,0,0,0,1.38.45v.62l-1.74-.07c-.78,0-1.57,0-2.36,0s-1.61,0-2.43,0l-1.86.07v-.62a1.8,1.8,0,0,0,1.39-.45,2.65,2.65,0,0,0,.4-1.69v-9.41a4.19,4.19,0,0,0-.37-2,1.51,1.51,0,0,0-1.42-.64v-.62c.64.06,1.25.09,1.85.09.89,0,1.74,0,2.54-.11A19.48,19.48,0,0,0,100.82,98ZM98.2,90.52a3.44,3.44,0,0,1,2.19.63,2.5,2.5,0,0,1,0,3.63,4.18,4.18,0,0,1-4.38,0,2.48,2.48,0,0,1,0-3.63A3.44,3.44,0,0,1,98.2,90.52Z"/>
    <path class="cls-1" d="M120.57,92.64v.59a4.46,4.46,0,0,0-1.39.22,1,1,0,0,0-.63.72,6.39,6.39,0,0,0-.15,1.62v14.76a5.86,5.86,0,0,0,.17,1.61,1,1,0,0,0,.62.71,4.93,4.93,0,0,0,1.38.24v.59c-.55,0-1.26-.06-2.12-.07l-2.61,0-2.85,0c-.9,0-1.61,0-2.15.07v-.59a5,5,0,0,0,1.39-.24,1,1,0,0,0,.62-.71,5.86,5.86,0,0,0,.17-1.61V95.79a5.79,5.79,0,0,0-.17-1.62,1.07,1.07,0,0,0-.62-.72,4.41,4.41,0,0,0-1.39-.22v-.59l2.15.06q1.33,0,2.85,0c.88,0,1.74,0,2.61,0Zm10.6,0v.56a8.25,8.25,0,0,0-2.15.91,10.46,10.46,0,0,0-2.47,2.16l-5.5,6.42,2-2.79,7.05,11.39a5.48,5.48,0,0,0,.85,1.07,4.09,4.09,0,0,0,1.15.75v.59c-.77,0-1.61-.06-2.5-.07l-2.5,0-1.61,0c-.63,0-1.44,0-2.41.07v-.59c.88,0,1.39-.15,1.55-.33s.09-.52-.21-1l-4.34-7.14a5,5,0,0,0-.64-.93,2.24,2.24,0,0,0-.55-.43,1.92,1.92,0,0,0-.72-.16v-.6a4.45,4.45,0,0,0,2.41-.8,13,13,0,0,0,2.5-2.38l1.4-1.64a5,5,0,0,0,1.33-2.35,1.64,1.64,0,0,0-.51-1.54,2.74,2.74,0,0,0-1.8-.6v-.56l1.49,0,1.47,0,1.74,0c.62,0,1.16,0,1.64,0Z"/>
    <path class="cls-1" d="M138.9,90.43v9.94a4.33,4.33,0,0,1,2-1.93,6.7,6.7,0,0,1,2.84-.57,5.53,5.53,0,0,1,2.1.33A3.12,3.12,0,0,1,147,99a3.6,3.6,0,0,1,.68,1.46,11,11,0,0,1,.21,2.41v8a2.59,2.59,0,0,0,.4,1.69,1.79,1.79,0,0,0,1.38.45v.62l-1.74-.07c-.78,0-1.55,0-2.3,0s-1.57,0-2.32,0l-1.73.07v-.62a1.34,1.34,0,0,0,1.16-.45,3,3,0,0,0,.33-1.69v-9.47a4,4,0,0,0-.15-1.17,1.4,1.4,0,0,0-.49-.75,1.73,1.73,0,0,0-1-.25,2.48,2.48,0,0,0-1.26.34,2.61,2.61,0,0,0-.94,1,3,3,0,0,0-.36,1.48v8.84a3,3,0,0,0,.34,1.69,1.36,1.36,0,0,0,1.15.45v.62l-1.61-.07c-.71,0-1.44,0-2.2,0s-1.6,0-2.42,0l-1.86.07v-.62a1.79,1.79,0,0,0,1.38-.45,2.59,2.59,0,0,0,.4-1.69V94a4,4,0,0,0-.37-2,1.49,1.49,0,0,0-1.41-.64v-.63c.63.06,1.25.09,1.84.09.91,0,1.77,0,2.56-.1A19,19,0,0,0,138.9,90.43Z"/>
    <path class="cls-1" d="M154.79,113.91a4.42,4.42,0,0,1-2.26-.52,3.22,3.22,0,0,1-1.31-1.38,4.18,4.18,0,0,1-.42-1.85,3.45,3.45,0,0,1,.58-2,4.34,4.34,0,0,1,1.51-1.3,11.74,11.74,0,0,1,1.93-.81l1.93-.64a5,5,0,0,0,1.49-.75,1.33,1.33,0,0,0,.57-1.11V101a3.88,3.88,0,0,0-.2-1.24,1.89,1.89,0,0,0-.68-1,2.19,2.19,0,0,0-1.35-.37,3.7,3.7,0,0,0-1.05.15,2.46,2.46,0,0,0-.89.47,2.76,2.76,0,0,1,1.42,1,2.5,2.5,0,0,1,.46,1.45,2.16,2.16,0,0,1-.76,1.74,2.7,2.7,0,0,1-1.8.64,2.16,2.16,0,0,1-1.74-.71,2.56,2.56,0,0,1-.61-1.73,2.53,2.53,0,0,1,.44-1.5,4.35,4.35,0,0,1,1.31-1.12,6.84,6.84,0,0,1,2.09-.74,13.3,13.3,0,0,1,2.58-.24,11,11,0,0,1,2.58.29,4.17,4.17,0,0,1,2,1.11,3.23,3.23,0,0,1,.83,1.67,14.26,14.26,0,0,1,.18,2.5v8a2.7,2.7,0,0,0,.13,1,.45.45,0,0,0,.43.28,1,1,0,0,0,.51-.15q.24-.15.48-.33l.32.51a4.54,4.54,0,0,1-1.54.82,6.36,6.36,0,0,1-1.94.28,4.49,4.49,0,0,1-1.86-.31,2,2,0,0,1-.95-.85,2.76,2.76,0,0,1-.31-1.19,5.37,5.37,0,0,1-1.64,1.71A4.4,4.4,0,0,1,154.79,113.91Zm2.47-2.14a1.93,1.93,0,0,0,.85-.19,2.09,2.09,0,0,0,.7-.67v-6.19a3.28,3.28,0,0,1-.64.78c-.27.25-.55.5-.85.75a8.19,8.19,0,0,0-.85.82,3.58,3.58,0,0,0-.65,1.05,3.84,3.84,0,0,0-.26,1.48,2.35,2.35,0,0,0,.48,1.66A1.59,1.59,0,0,0,157.26,111.77Z"/>
    <path class="cls-1" d="M172.82,90.43v20.51a2.65,2.65,0,0,0,.4,1.69,1.8,1.8,0,0,0,1.39.45v.62l-1.73-.07c-.77,0-1.57,0-2.38,0s-1.6,0-2.42,0l-1.86.07v-.62a1.79,1.79,0,0,0,1.38-.45,2.59,2.59,0,0,0,.4-1.69V94a4,4,0,0,0-.37-2,1.49,1.49,0,0,0-1.41-.64v-.63c.63.06,1.25.09,1.84.09.91,0,1.77,0,2.56-.1A19,19,0,0,0,172.82,90.43Z"/>
    <path class="cls-1" d="M182.46,98v13a2.65,2.65,0,0,0,.4,1.69,1.8,1.8,0,0,0,1.39.45v.62l-1.74-.07c-.79,0-1.58,0-2.37,0s-1.6,0-2.42,0l-1.86.07v-.62a1.79,1.79,0,0,0,1.38-.45,2.59,2.59,0,0,0,.4-1.69v-9.41a4.07,4.07,0,0,0-.37-2,1.51,1.51,0,0,0-1.41-.64v-.62c.63.06,1.25.09,1.84.09.89,0,1.74,0,2.55-.11A19,19,0,0,0,182.46,98Zm-2.62-7.44a3.42,3.42,0,0,1,2.19.63,2.48,2.48,0,0,1,0,3.63,4.16,4.16,0,0,1-4.37,0,2.48,2.48,0,0,1,0-3.63A3.39,3.39,0,0,1,179.84,90.52Z"/>
    <path class="cls-1" d="M192.43,97.87a6.37,6.37,0,0,1,2.26.37,3.47,3.47,0,0,1,1.58,1.24l-.36.3A2.34,2.34,0,0,0,195,99a2.8,2.8,0,0,0-1.14-.23q-1.43,0-2.22,1.77a14.19,14.19,0,0,0-.79,5.43,20.16,20.16,0,0,0,.32,4,4.38,4.38,0,0,0,.86,2.07,1.66,1.66,0,0,0,1.23.59,2.29,2.29,0,0,0,1.65-.7,2.52,2.52,0,0,0,.76-1.86l.09,1.25a4.43,4.43,0,0,1-1.47,2.05,3.94,3.94,0,0,1-2.4.69,5.48,5.48,0,0,1-5.28-3.53,11.88,11.88,0,0,1-.79-4.68,10.43,10.43,0,0,1,.85-4.48A6,6,0,0,1,189,98.77,6.56,6.56,0,0,1,192.43,97.87Zm8-7.44v20a3.8,3.8,0,0,0,.41,2,1.5,1.5,0,0,0,1.38.64v.62c-.62-.06-1.23-.09-1.85-.09-.89,0-1.73,0-2.53.09a15.12,15.12,0,0,0-2.23.33V94a4,4,0,0,0-.37-2,1.49,1.49,0,0,0-1.41-.64v-.63c.63.06,1.25.09,1.84.09.92,0,1.77,0,2.56-.1A19,19,0,0,0,200.43,90.43Z"/>
    <path class="cls-1" d="M219.14,92.61l7.2,18.59a3.94,3.94,0,0,0,.94,1.46,1.64,1.64,0,0,0,.88.45v.59c-.64,0-1.4-.06-2.28-.07l-2.69,0-2.71,0c-.85,0-1.54,0-2,.07v-.59a2.94,2.94,0,0,0,1.93-.52q.42-.47-.18-2L215.24,97.1l.6-.89-4.35,11.21a14.17,14.17,0,0,0-.83,2.89,3,3,0,0,0,.15,1.7,1.68,1.68,0,0,0,.94.83,4.76,4.76,0,0,0,1.53.27v.59c-.69,0-1.33-.06-1.92-.07l-1.89,0-1.2,0a10.07,10.07,0,0,0-1.06.07v-.59a2.46,2.46,0,0,0,1.32-.84,7.45,7.45,0,0,0,1.33-2.47l6.69-17.19c.4,0,.83.06,1.3.06S218.74,92.65,219.14,92.61Zm1.55,12.52v.6h-8.87l.3-.6Z"/>
    <path class="cls-1" d="M243.42,98.29v.62a2.56,2.56,0,0,0-1.09.75,5.75,5.75,0,0,0-1,2l-4,11.43-1.31,2.77-6.81-15.24a3.14,3.14,0,0,0-1-1.4,1.74,1.74,0,0,0-.81-.27v-.62c.74.06,1.49.1,2.26.13s1.51,0,2.21,0c.87,0,1.64,0,2.32-.06l1.9-.12v.62a9.08,9.08,0,0,0-1.07.06.93.93,0,0,0-.7.35c-.13.18-.09.52.1,1l3.78,9-.29.21,1.81-5.27a7.68,7.68,0,0,0,.54-3,2.68,2.68,0,0,0-.69-1.75,2.27,2.27,0,0,0-1.52-.66v-.62l1,.06,1.09,0,.92,0,1.25,0A9.12,9.12,0,0,0,243.42,98.29Zm-6,14.76-1.19,3.39a7.72,7.72,0,0,1-.58,1.28,3,3,0,0,1-.73.86,3.18,3.18,0,0,1-1.06.52,5.58,5.58,0,0,1-1.62.2,5.69,5.69,0,0,1-1.62-.26,3.44,3.44,0,0,1-1.43-.82,2,2,0,0,1-.58-1.51,1.88,1.88,0,0,1,.72-1.56,2.94,2.94,0,0,1,1.93-.58,2.82,2.82,0,0,1,1.77.5,1.77,1.77,0,0,1,.67,1.52,2.12,2.12,0,0,1-.42,1.22,2.5,2.5,0,0,1-1.3.89l.46,0h.4a2.49,2.49,0,0,0,1.63-.58,3.89,3.89,0,0,0,1.14-1.8l1-3.15Z"/>
    <path class="cls-1" d="M251.54,97.87a9.23,9.23,0,0,1,3.92.79,5.57,5.57,0,0,1,2.61,2.58,12.52,12.52,0,0,1,0,9.52,5.6,5.6,0,0,1-2.61,2.57,9.08,9.08,0,0,1-3.92.79,9,9,0,0,1-3.88-.79,5.68,5.68,0,0,1-2.63-2.57,12.28,12.28,0,0,1,0-9.52,5.66,5.66,0,0,1,2.63-2.58A9.11,9.11,0,0,1,251.54,97.87Zm-3.72-8.54a1.69,1.69,0,0,1,1.42-.4,2,2,0,0,1,1.26.7,4,4,0,0,1,.81,1.37c.17.52.39,1.14.63,1.87a19.07,19.07,0,0,0,1.24,2.74l-.33.27a22.91,22.91,0,0,0-2.3-1.84l-1.65-1.12a5.61,5.61,0,0,1-1.17-1,2.06,2.06,0,0,1-.49-1.35A1.58,1.58,0,0,1,247.82,89.33Zm3.72,9.14q-1,0-1.74,1.77a17.21,17.21,0,0,0-.7,5.76,17.18,17.18,0,0,0,.7,5.75q.7,1.77,1.74,1.77c.72,0,1.3-.59,1.76-1.77A17.56,17.56,0,0,0,254,106a17.59,17.59,0,0,0-.68-5.76C252.84,99.06,252.26,98.47,251.54,98.47Z"/>
    <path class="cls-1" d="M266.81,90.43v23a5.26,5.26,0,0,0-1.76-.22,5.9,5.9,0,0,0-1.63.3,3.28,3.28,0,0,0-1.2.67l-.44-.27a3.09,3.09,0,0,0,.18-.83q0-.42,0-.84V94a4,4,0,0,0-.38-2,1.47,1.47,0,0,0-1.41-.64v-.63c.64.06,1.25.09,1.85.09.91,0,1.76,0,2.56-.1A19.35,19.35,0,0,0,266.81,90.43Zm4.55,7.44a4.64,4.64,0,0,1,3.76,1.86c1,1.24,1.51,3.15,1.51,5.73a11.87,11.87,0,0,1-.94,5.13,5.83,5.83,0,0,1-2.5,2.73,7.48,7.48,0,0,1-3.44.8,7.4,7.4,0,0,1-2-.27,4.23,4.23,0,0,1-1.71-1l.39-.3a3,3,0,0,0,1.07.7,3.3,3.3,0,0,0,1.16.22q1.51,0,2.25-1.86a16.47,16.47,0,0,0,.73-5.63,23.28,23.28,0,0,0-.28-4,4.62,4.62,0,0,0-.81-2.07,1.6,1.6,0,0,0-1.23-.61,2.34,2.34,0,0,0-1.68.73,2.81,2.81,0,0,0-.82,2l-.06-1.25a4.27,4.27,0,0,1,1.81-2.14A5.49,5.49,0,0,1,271.36,97.87Z"/>
    <path class="cls-1" d="M282.4,113.91a4.4,4.4,0,0,1-2.26-.52,3.22,3.22,0,0,1-1.31-1.38,4.18,4.18,0,0,1-.42-1.85,3.38,3.38,0,0,1,.58-2,4.39,4.39,0,0,1,1.5-1.3,11.84,11.84,0,0,1,1.94-.81l1.93-.64a5.17,5.17,0,0,0,1.49-.75,1.32,1.32,0,0,0,.56-1.11V101a3.88,3.88,0,0,0-.19-1.24,2,2,0,0,0-.68-1,2.2,2.2,0,0,0-1.36-.37,3.68,3.68,0,0,0-1,.15,2.38,2.38,0,0,0-.89.47,2.78,2.78,0,0,1,1.41,1,2.43,2.43,0,0,1,.46,1.45,2.13,2.13,0,0,1-.76,1.74,2.66,2.66,0,0,1-1.79.64,2.2,2.2,0,0,1-1.75-.71,2.61,2.61,0,0,1-.61-1.73,2.47,2.47,0,0,1,.45-1.5A4.23,4.23,0,0,1,281,98.85a6.78,6.78,0,0,1,2.08-.74,13.48,13.48,0,0,1,2.59-.24,10.87,10.87,0,0,1,2.57.29,4.08,4.08,0,0,1,2,1.11,3.17,3.17,0,0,1,.84,1.67,14.39,14.39,0,0,1,.17,2.5v8a2.65,2.65,0,0,0,.14,1,.44.44,0,0,0,.43.28,1,1,0,0,0,.51-.15l.47-.33.33.51a4.59,4.59,0,0,1-1.55.82,6.3,6.3,0,0,1-1.93.28,4.43,4.43,0,0,1-1.86-.31,1.9,1.9,0,0,1-.95-.85,2.77,2.77,0,0,1-.32-1.19,5.34,5.34,0,0,1-1.63,1.71A4.43,4.43,0,0,1,282.4,113.91Zm2.47-2.14a2,2,0,0,0,.85-.19,2.07,2.07,0,0,0,.69-.67v-6.19a3.05,3.05,0,0,1-.64.78c-.26.25-.55.5-.84.75a8.19,8.19,0,0,0-.85.82,3.61,3.61,0,0,0-.66,1.05,4.05,4.05,0,0,0-.25,1.48,2.35,2.35,0,0,0,.48,1.66A1.58,1.58,0,0,0,284.87,111.77Zm3.92-22.44a1.49,1.49,0,0,1,.59,1.19,2,2,0,0,1-.5,1.37,4.77,4.77,0,0,1-1.14,1c-.47.31-1,.68-1.65,1.12a25.29,25.29,0,0,0-2.32,1.84l-.33-.27a18.85,18.85,0,0,0,1.23-2.74c.25-.73.47-1.35.64-1.87a4,4,0,0,1,.81-1.37,2,2,0,0,1,1.26-.68A1.74,1.74,0,0,1,288.79,89.33Z"/>
    <path class="cls-1" d="M305.07,97.87a5.47,5.47,0,0,1,2.07.33,3.37,3.37,0,0,1,1.23.83,3.45,3.45,0,0,1,.69,1.48,10.93,10.93,0,0,1,.21,2.39v8a2.94,2.94,0,0,0,.34,1.69,1.42,1.42,0,0,0,1.2.45v.62l-1.66-.07c-.74,0-1.45,0-2.15,0s-1.48,0-2.2,0l-1.6.07v-.62a1,1,0,0,0,1-.45,3.43,3.43,0,0,0,.29-1.69v-9.47a5,5,0,0,0-.12-1.17,1.37,1.37,0,0,0-.42-.75,1.35,1.35,0,0,0-.86-.25,2.32,2.32,0,0,0-1.24.36,2.62,2.62,0,0,0-.92,1,3,3,0,0,0-.34,1.44v8.84a3.61,3.61,0,0,0,.27,1.69,1,1,0,0,0,1,.45v.62l-1.52-.07c-.67,0-1.36,0-2,0s-1.63,0-2.44,0l-1.85.07v-.62a1.8,1.8,0,0,0,1.39-.45,2.65,2.65,0,0,0,.4-1.69v-9.41a3.93,3.93,0,0,0-.39-2,1.51,1.51,0,0,0-1.4-.64v-.62c.64.06,1.25.09,1.85.09.89,0,1.74,0,2.54-.11a19.48,19.48,0,0,0,2.22-.31v2.41a4.13,4.13,0,0,1,1.86-1.92A6,6,0,0,1,305.07,97.87Zm9,0a5.38,5.38,0,0,1,2.06.33,2.87,2.87,0,0,1,1.92,2.31,10.93,10.93,0,0,1,.21,2.39v8a2.65,2.65,0,0,0,.4,1.69,1.8,1.8,0,0,0,1.39.45v.62l-1.77-.07c-.79,0-1.55,0-2.28,0s-1.49,0-2.2,0l-1.61.07v-.62a1.05,1.05,0,0,0,1-.45,3.46,3.46,0,0,0,.28-1.69v-9.47a4,4,0,0,0-.15-1.17,1.4,1.4,0,0,0-.49-.75,1.73,1.73,0,0,0-1-.25,2.2,2.2,0,0,0-1.23.4,2.87,2.87,0,0,0-.92,1.06,3.68,3.68,0,0,0-.4,1.46l-.18-1.49a4.46,4.46,0,0,1,2.11-2.26A6.83,6.83,0,0,1,314,97.87Z"/>
    <path class="cls-1" d="M327.62,98v13a2.58,2.58,0,0,0,.41,1.69,1.76,1.76,0,0,0,1.38.45v.62l-1.74-.07c-.79,0-1.57,0-2.37,0s-1.6,0-2.42,0l-1.86.07v-.62a1.79,1.79,0,0,0,1.38-.45,2.59,2.59,0,0,0,.4-1.69v-9.41a4.07,4.07,0,0,0-.37-2,1.51,1.51,0,0,0-1.41-.64v-.62c.63.06,1.25.09,1.84.09.9,0,1.74,0,2.55-.11A19,19,0,0,0,327.62,98ZM325,90.52a3.39,3.39,0,0,1,2.18.63,2.48,2.48,0,0,1,0,3.63,4.16,4.16,0,0,1-4.37,0,2.48,2.48,0,0,1,0-3.63A3.4,3.4,0,0,1,325,90.52Z"/>
  </g>
  <g>
    <path class="cls-1" d="M52.89,137.05h8v1.48H54.65v4.65H59.9v1.48H54.65v6.17H52.89Z"/>
    <path class="cls-1" d="M62.69,140.62h1.42l.15,1.86h.06a3.5,3.5,0,0,1,2.9-2.11,2.41,2.41,0,0,1,1.09.21L68,142.09a2.86,2.86,0,0,0-1-.16c-.86,0-1.89.62-2.58,2.34v6.56H62.69Z"/>
    <path class="cls-1" d="M69,145.74c0-3.41,2.23-5.37,4.73-5.37s4.73,2,4.73,5.37-2.23,5.34-4.73,5.34S69,149.12,69,145.74Zm7.68,0c0-2.34-1.19-3.93-3-3.93s-2.94,1.59-2.94,3.93,1.19,3.9,2.94,3.9S76.68,148.08,76.68,145.74Z"/>
    <path class="cls-1" d="M81.14,140.62h1.43l.15,1.47h0a4.92,4.92,0,0,1,3.43-1.72c2.15,0,3.11,1.39,3.11,4v6.47H87.59v-6.25c0-1.9-.58-2.71-1.93-2.71-1,0-1.77.53-2.79,1.57v7.39H81.14Z"/>
    <path class="cls-1" d="M92.93,147.67V142H91.41v-1.31l1.6-.1.21-2.86h1.44v2.86h2.76V142H94.66v5.67c0,1.25.4,2,1.58,2a3.57,3.57,0,0,0,1.16-.27l.33,1.3a6.23,6.23,0,0,1-1.89.38C93.67,151.08,92.93,149.7,92.93,147.67Z"/>
    <path class="cls-1" d="M98.33,144.9h4.81v1.32H98.33Z"/>
    <path class="cls-1" d="M105,145.74c0-3.33,2.23-5.37,4.58-5.37,2.61,0,4.08,1.87,4.08,4.79a5.46,5.46,0,0,1-.08,1h-6.88c.13,2.16,1.45,3.56,3.39,3.56a4.44,4.44,0,0,0,2.54-.81l.62,1.13a6,6,0,0,1-3.37,1.06C107.12,151.08,105,149.09,105,145.74Zm7.13-.84c0-2-.92-3.16-2.52-3.16-1.43,0-2.71,1.16-2.92,3.16Z"/>
    <path class="cls-1" d="M116.13,140.62h1.43l.14,1.47h.06a4.88,4.88,0,0,1,3.42-1.72c2.15,0,3.12,1.39,3.12,4v6.47h-1.73v-6.25c0-1.9-.57-2.71-1.92-2.71-1.05,0-1.77.53-2.79,1.57v7.39h-1.73Z"/>
    <path class="cls-1" d="M126.89,145.74c0-3.31,2.09-5.37,4.41-5.37a4.19,4.19,0,0,1,2.87,1.18l-.08-1.75v-3.93h1.73v15h-1.43l-.14-1.21h-.06a4.53,4.53,0,0,1-3.1,1.46C128.54,151.08,126.89,149.14,126.89,145.74Zm7.2,2.49v-5.35a3.61,3.61,0,0,0-2.49-1.06c-1.63,0-2.93,1.58-2.93,3.9s1,3.9,2.8,3.9A3.52,3.52,0,0,0,134.09,148.23Z"/>
    <path class="cls-1" d="M142.74,145.74c0-3.31,2.09-5.37,4.42-5.37a4.16,4.16,0,0,1,2.86,1.18L150,139.8v-3.93h1.72v15h-1.42l-.15-1.21H150a4.52,4.52,0,0,1-3.09,1.46C144.4,151.08,142.74,149.14,142.74,145.74Zm7.21,2.49v-5.35a3.62,3.62,0,0,0-2.49-1.06c-1.63,0-2.93,1.58-2.93,3.9s1,3.9,2.8,3.9A3.55,3.55,0,0,0,150,148.23Z"/>
    <path class="cls-1" d="M154.37,145.74c0-3.33,2.24-5.37,4.59-5.37,2.6,0,4.07,1.87,4.07,4.79a5.46,5.46,0,0,1-.08,1h-6.88c.13,2.16,1.45,3.56,3.4,3.56a4.49,4.49,0,0,0,2.54-.81l.61,1.13a6,6,0,0,1-3.37,1.06C156.53,151.08,154.37,149.09,154.37,145.74Zm7.13-.84c0-2-.92-3.16-2.51-3.16-1.44,0-2.72,1.16-2.93,3.16Z"/>
    <path class="cls-1" d="M164.18,140.62H166l1.93,5.8c.3,1,.63,2,.94,3h.08c.31-1,.64-2,.94-3l1.93-5.8h1.7l-3.61,10.21h-2Z"/>
    <path class="cls-1" d="M174.61,145.74c0-3.33,2.24-5.37,4.59-5.37,2.6,0,4.07,1.87,4.07,4.79a5.46,5.46,0,0,1-.08,1h-6.87c.12,2.16,1.44,3.56,3.39,3.56a4.46,4.46,0,0,0,2.54-.81l.62,1.13a6,6,0,0,1-3.37,1.06C176.78,151.08,174.61,149.09,174.61,145.74Zm7.14-.84c0-2-.92-3.16-2.52-3.16-1.44,0-2.72,1.16-2.93,3.16Z"/>
    <path class="cls-1" d="M185.79,148.78V135.87h1.72v13c0,.53.23.74.48.74a1.55,1.55,0,0,0,.38,0l.24,1.32a2.81,2.81,0,0,1-1,.16C186.32,151.08,185.79,150.25,185.79,148.78Z"/>
    <path class="cls-1" d="M190.38,145.74c0-3.41,2.23-5.37,4.73-5.37s4.73,2,4.73,5.37-2.23,5.34-4.73,5.34S190.38,149.12,190.38,145.74Zm7.68,0c0-2.34-1.19-3.93-2.95-3.93s-2.94,1.59-2.94,3.93,1.19,3.9,2.94,3.9S198.06,148.08,198.06,145.74Z"/>
    <path class="cls-1" d="M202.52,140.62H204l.14,1.18h.06a5.34,5.34,0,0,1,3.25-1.43c2.64,0,4,2,4,5.2,0,3.48-2.09,5.51-4.42,5.51a4.66,4.66,0,0,1-2.83-1.18l.05,1.78v3.45h-1.73Zm7.15,5c0-2.25-.77-3.76-2.69-3.76a4.21,4.21,0,0,0-2.73,1.39v5.35a4,4,0,0,0,2.48,1.06C208.42,149.62,209.67,148.1,209.67,145.58Z"/>
    <path class="cls-1" d="M213.42,145.74c0-3.33,2.24-5.37,4.59-5.37,2.6,0,4.07,1.87,4.07,4.79a5.46,5.46,0,0,1-.08,1h-6.87c.12,2.16,1.44,3.56,3.39,3.56a4.46,4.46,0,0,0,2.54-.81l.61,1.13a6,6,0,0,1-3.37,1.06C215.58,151.08,213.42,149.09,213.42,145.74Zm7.13-.84c0-2-.92-3.16-2.51-3.16-1.44,0-2.72,1.16-2.93,3.16Z"/>
    <path class="cls-1" d="M224.59,140.62H226l.14,1.86h.06a3.51,3.51,0,0,1,2.9-2.11,2.38,2.38,0,0,1,1.09.21l-.32,1.51a2.86,2.86,0,0,0-1-.16c-.86,0-1.89.62-2.58,2.34v6.56h-1.73Z"/>
  </g>
</svg>
