<svg id="Layer_1" data-name="Layer 1" xmlns="http://www.w3.org/2000/svg" viewBox="0 0 331.62 217.68">
  <defs>
    <style>
      .cls-1 {
        fill: #231f20;
      }
    </style>
  </defs>
  <g>
    <path class="cls-1" d="M91.69,77.82v.56a2.64,2.64,0,0,0-1.07.24,1.47,1.47,0,0,0-.66.83,7,7,0,0,0-.32,1.88q-.09,1.24-.09,3.36A8.93,8.93,0,0,1,89,88a5.87,5.87,0,0,1-1.43,2.17,6.4,6.4,0,0,1-2,1.3,12.66,12.66,0,0,1-2.39.7,12.66,12.66,0,0,1,2.39.7,6.37,6.37,0,0,1,2,1.29A6,6,0,0,1,89,96.35a9,9,0,0,1,.54,3.34q0,2.19.09,3.48a7.39,7.39,0,0,0,.32,1.92,1.4,1.4,0,0,0,.66.83,2.53,2.53,0,0,0,1.07.19v.57a11.31,11.31,0,0,1-4.06-.61,4,4,0,0,1-2.22-2.13,10.55,10.55,0,0,1-.68-4.25,36.29,36.29,0,0,0-.2-4.33,4.87,4.87,0,0,0-.67-2.19,1.74,1.74,0,0,0-1.39-.71h-.15v-.54h.15a1.76,1.76,0,0,0,1.39-.7A4.82,4.82,0,0,0,84.53,89a36.71,36.71,0,0,0,.2-4.34,10.06,10.06,0,0,1,.68-4.12,4.06,4.06,0,0,1,2.22-2.13A10.86,10.86,0,0,1,91.69,77.82Z"/>
    <path class="cls-1" d="M99.25,77.82v20.5a2.74,2.74,0,0,0,.38,1.69,1.7,1.7,0,0,0,1.34.45v.62L99.28,101c-.76,0-1.53-.05-2.32-.05s-1.64,0-2.46.05l-1.86.07v-.62A1.76,1.76,0,0,0,94,100a2.58,2.58,0,0,0,.41-1.69V81.39a4,4,0,0,0-.38-2,1.48,1.48,0,0,0-1.41-.64v-.63c.64.06,1.25.09,1.85.09.91,0,1.76,0,2.55-.1A19.3,19.3,0,0,0,99.25,77.82Zm9.82,7.85v.6a6.24,6.24,0,0,0-2,.9A13.85,13.85,0,0,0,105,88.88l-1.67,1.7.24-.48,4.94,8.81a8.64,8.64,0,0,0,.61.92,2,2,0,0,0,.76.63v.62l-1.41-.07c-.65,0-1.3-.05-1.95-.05s-1.52,0-2.28.05l-1.74.07v-.62a1,1,0,0,0,.8-.27c.14-.18.12-.43-.06-.74L100.47,94a1.51,1.51,0,0,0-.58-.65,1.78,1.78,0,0,0-.76-.15v-.57a4.12,4.12,0,0,0,.91-.15,1.77,1.77,0,0,0,.75-.44l2.27-2.17a2.77,2.77,0,0,0,1-1.77,1.54,1.54,0,0,0-.65-1.3,3.06,3.06,0,0,0-1.71-.56v-.6l1.83.06,1.71,0h1.32l1.4,0C108.46,85.71,108.81,85.69,109.07,85.67Z"/>
    <path class="cls-1" d="M116.35,77.82v9.93a4.33,4.33,0,0,1,2-1.93,6.74,6.74,0,0,1,2.85-.57,5.47,5.47,0,0,1,2.09.33,3,3,0,0,1,1.21.84,3.49,3.49,0,0,1,.68,1.45,11,11,0,0,1,.21,2.41v8a2.59,2.59,0,0,0,.4,1.69,1.8,1.8,0,0,0,1.39.45v.62l-1.74-.07c-.79,0-1.56-.05-2.31-.05s-1.57,0-2.32.05l-1.73.07v-.62a1.34,1.34,0,0,0,1.16-.45,3,3,0,0,0,.33-1.69V88.85a4.06,4.06,0,0,0-.15-1.17,1.33,1.33,0,0,0-.49-.74,1.66,1.66,0,0,0-1-.26,2.53,2.53,0,0,0-1.26.34,2.57,2.57,0,0,0-.94,1,2.91,2.91,0,0,0-.36,1.47v8.84a2.93,2.93,0,0,0,.35,1.69,1.33,1.33,0,0,0,1.14.45v.62l-1.6-.07c-.72,0-1.45-.05-2.21-.05s-1.6,0-2.42.05l-1.86.07v-.62a1.77,1.77,0,0,0,1.38-.45,2.59,2.59,0,0,0,.4-1.69V81.39a4,4,0,0,0-.37-2,1.49,1.49,0,0,0-1.41-.64v-.63c.63.06,1.25.09,1.84.09.92,0,1.77,0,2.56-.1A18.8,18.8,0,0,0,116.35,77.82Z"/>
    <path class="cls-1" d="M132.24,101.29a4.42,4.42,0,0,1-2.26-.52,3.28,3.28,0,0,1-1.31-1.38,4.31,4.31,0,0,1-.41-1.85,3.4,3.4,0,0,1,.58-2.05,4.1,4.1,0,0,1,1.5-1.29,11.78,11.78,0,0,1,1.93-.82l1.94-.64A5.31,5.31,0,0,0,135.7,92a1.34,1.34,0,0,0,.56-1.11V88.41a3.88,3.88,0,0,0-.19-1.24,2,2,0,0,0-.69-1,2.17,2.17,0,0,0-1.35-.37,3.58,3.58,0,0,0-1,.15,2.58,2.58,0,0,0-.9.47,2.76,2.76,0,0,1,1.42,1,2.43,2.43,0,0,1,.46,1.45,2.16,2.16,0,0,1-.76,1.75,2.73,2.73,0,0,1-1.8.63,2.16,2.16,0,0,1-1.74-.71,2.56,2.56,0,0,1-.61-1.73,2.47,2.47,0,0,1,.45-1.5,4.1,4.1,0,0,1,1.31-1.11,6.44,6.44,0,0,1,2.08-.75,13.33,13.33,0,0,1,2.59-.24,10.87,10.87,0,0,1,2.57.29,4.25,4.25,0,0,1,2,1.11,3.16,3.16,0,0,1,.83,1.67,14.26,14.26,0,0,1,.18,2.5v8a2.92,2.92,0,0,0,.13,1,.45.45,0,0,0,.44.28.94.94,0,0,0,.5-.15l.48-.32.33.5a4.69,4.69,0,0,1-1.55.82,6.36,6.36,0,0,1-1.94.28,4.49,4.49,0,0,1-1.86-.31,2,2,0,0,1-1-.85,2.76,2.76,0,0,1-.31-1.19,5.17,5.17,0,0,1-1.64,1.71A4.38,4.38,0,0,1,132.24,101.29Zm2.47-2.14a1.8,1.8,0,0,0,.85-.19,2.09,2.09,0,0,0,.7-.67V92.1a3.32,3.32,0,0,1-.64.79c-.27.24-.55.49-.85.74a9.33,9.33,0,0,0-.85.82,4,4,0,0,0-.65,1A3.85,3.85,0,0,0,133,97a2.4,2.4,0,0,0,.47,1.66A1.61,1.61,0,0,0,134.71,99.15Z"/>
    <path class="cls-1" d="M150.27,77.82v20.5a2.58,2.58,0,0,0,.41,1.69,1.76,1.76,0,0,0,1.38.45v.62l-1.73-.07c-.77,0-1.56-.05-2.38-.05s-1.6,0-2.42.05l-1.86.07v-.62a1.79,1.79,0,0,0,1.38-.45,2.59,2.59,0,0,0,.4-1.69V81.39a4,4,0,0,0-.37-2,1.49,1.49,0,0,0-1.41-.64v-.63c.63.06,1.25.09,1.84.09.92,0,1.77,0,2.56-.1A18.8,18.8,0,0,0,150.27,77.82Z"/>
    <path class="cls-1" d="M159.91,85.34v13a2.58,2.58,0,0,0,.41,1.69,1.76,1.76,0,0,0,1.38.45v.62L160,101c-.78,0-1.57-.05-2.37-.05s-1.6,0-2.42.05l-1.86.07v-.62a1.79,1.79,0,0,0,1.38-.45,2.59,2.59,0,0,0,.4-1.69V88.91a4,4,0,0,0-.37-2,1.49,1.49,0,0,0-1.41-.64v-.63c.63.06,1.25.09,1.84.09.9,0,1.74,0,2.55-.1A18.89,18.89,0,0,0,159.91,85.34Zm-2.61-7.43a3.39,3.39,0,0,1,2.18.62,2.48,2.48,0,0,1,0,3.63,4.1,4.1,0,0,1-4.37,0,2.48,2.48,0,0,1,0-3.63A3.4,3.4,0,0,1,157.3,77.91Z"/>
    <path class="cls-1" d="M169.88,85.25a6.14,6.14,0,0,1,2.26.38,3.52,3.52,0,0,1,1.58,1.23l-.36.3a2.21,2.21,0,0,0-.93-.74,2.86,2.86,0,0,0-1.15-.24q-1.42,0-2.22,1.77a14.22,14.22,0,0,0-.78,5.43,20.28,20.28,0,0,0,.31,4,4.48,4.48,0,0,0,.86,2.07,1.68,1.68,0,0,0,1.24.59,2.32,2.32,0,0,0,1.65-.7,2.56,2.56,0,0,0,.76-1.86l.09,1.25a4.47,4.47,0,0,1-1.48,2.06,4,4,0,0,1-2.39.68A5.48,5.48,0,0,1,164,98a11.7,11.7,0,0,1-.79-4.68,10.29,10.29,0,0,1,.85-4.48,5.9,5.9,0,0,1,2.35-2.66A6.53,6.53,0,0,1,169.88,85.25Zm8-7.43v20a3.81,3.81,0,0,0,.4,2,1.5,1.5,0,0,0,1.38.64v.62c-.61-.06-1.23-.09-1.84-.09-.9,0-1.74,0-2.53.09a14.73,14.73,0,0,0-2.23.33v-20a4,4,0,0,0-.38-2,1.48,1.48,0,0,0-1.41-.64v-.63c.64.06,1.25.09,1.85.09.91,0,1.76,0,2.55-.1A19.3,19.3,0,0,0,177.89,77.82Z"/>
    <path class="cls-1" d="M93.41,131.05a4.52,4.52,0,0,1-2.26-.52,3.24,3.24,0,0,1-1.31-1.39,4.27,4.27,0,0,1-.41-1.84,3.42,3.42,0,0,1,.58-2.06,4.38,4.38,0,0,1,1.5-1.29,11.78,11.78,0,0,1,1.93-.82l1.94-.64a5.31,5.31,0,0,0,1.49-.74,1.36,1.36,0,0,0,.56-1.12v-2.47a3.82,3.82,0,0,0-.19-1.23,1.89,1.89,0,0,0-.69-1,2.17,2.17,0,0,0-1.35-.38,3.63,3.63,0,0,0-1,.15,2.32,2.32,0,0,0-.89.48,2.76,2.76,0,0,1,1.41,1,2.46,2.46,0,0,1,.46,1.46,2.15,2.15,0,0,1-.76,1.74,2.66,2.66,0,0,1-1.8.64,2.16,2.16,0,0,1-1.74-.72,2.53,2.53,0,0,1-.61-1.72,2.43,2.43,0,0,1,.45-1.5A4.12,4.12,0,0,1,92,116a6.52,6.52,0,0,1,2.08-.74,13.4,13.4,0,0,1,2.59-.24,10.88,10.88,0,0,1,2.57.28,4.14,4.14,0,0,1,2,1.12,3.13,3.13,0,0,1,.83,1.66,14.34,14.34,0,0,1,.18,2.5v8a2.63,2.63,0,0,0,.14,1,.44.44,0,0,0,.43.29.91.91,0,0,0,.5-.15l.48-.33.33.51a4.67,4.67,0,0,1-1.55.81,6.34,6.34,0,0,1-1.93.29,4.41,4.41,0,0,1-1.86-.32,2,2,0,0,1-1-.84,2.8,2.8,0,0,1-.31-1.19,5.37,5.37,0,0,1-1.64,1.71A4.46,4.46,0,0,1,93.41,131.05Zm2.47-2.15a1.8,1.8,0,0,0,.85-.19,2,2,0,0,0,.7-.67v-6.19a3.32,3.32,0,0,1-.64.79c-.27.25-.55.5-.85.74a9.27,9.27,0,0,0-.84.82,3.66,3.66,0,0,0-.66,1.06,3.83,3.83,0,0,0-.25,1.47,2.43,2.43,0,0,0,.47,1.67A1.6,1.6,0,0,0,95.88,128.9Z"/>
    <path class="cls-1" d="M119.42,115.43v.62a2.62,2.62,0,0,0-1.09.74,5.82,5.82,0,0,0-1,2l-4,11.42L112.07,133l-6.81-15.23a3,3,0,0,0-1-1.4,1.68,1.68,0,0,0-.8-.27v-.62c.74.06,1.49.1,2.26.13s1.51,0,2.21,0c.87,0,1.64,0,2.32-.06l1.9-.11v.62a9.08,9.08,0,0,0-1.07.06.92.92,0,0,0-.7.34c-.13.19-.09.52.1,1l3.78,9-.29.21,1.81-5.26a7.71,7.71,0,0,0,.54-3,2.65,2.65,0,0,0-.69-1.75,2.27,2.27,0,0,0-1.52-.66v-.62l1,.06,1.09,0h.92l1.25,0A7.72,7.72,0,0,0,119.42,115.43Zm-6,14.75-1.19,3.4a7.59,7.59,0,0,1-.58,1.27,3,3,0,0,1-.73.87,3.18,3.18,0,0,1-1.06.52,6.08,6.08,0,0,1-3.24-.06,3.44,3.44,0,0,1-1.43-.82,2.05,2.05,0,0,1-.58-1.52,1.91,1.91,0,0,1,.72-1.56,2.94,2.94,0,0,1,1.93-.58,2.86,2.86,0,0,1,1.77.51,1.75,1.75,0,0,1,.67,1.51,2.07,2.07,0,0,1-.42,1.22,2.46,2.46,0,0,1-1.3.9l.46,0,.4,0a2.54,2.54,0,0,0,1.63-.58,3.8,3.8,0,0,0,1.13-1.8l1-3.16Z"/>
    <path class="cls-1" d="M127.54,115a9.12,9.12,0,0,1,3.92.79,5.55,5.55,0,0,1,2.61,2.57,12.52,12.52,0,0,1,0,9.52,5.62,5.62,0,0,1-2.61,2.58,9.27,9.27,0,0,1-3.92.78,9.11,9.11,0,0,1-3.88-.78,5.71,5.71,0,0,1-2.63-2.58,12.28,12.28,0,0,1,0-9.52,5.64,5.64,0,0,1,2.63-2.57A9,9,0,0,1,127.54,115Zm-3.72-8.54a1.65,1.65,0,0,1,1.42-.4,2,2,0,0,1,1.26.7,3.7,3.7,0,0,1,.8,1.37c.18.51.4,1.14.64,1.87a19.57,19.57,0,0,0,1.24,2.74l-.33.27a23.21,23.21,0,0,0-2.3-1.85l-1.66-1.12a5.48,5.48,0,0,1-1.16-1,2.09,2.09,0,0,1-.49-1.36A1.58,1.58,0,0,1,123.82,106.47Zm3.72,9.13q-1,0-1.74,1.77a17.21,17.21,0,0,0-.7,5.76,17.21,17.21,0,0,0,.7,5.76q.7,1.77,1.74,1.77c.72,0,1.3-.59,1.76-1.77a17.59,17.59,0,0,0,.68-5.76,17.59,17.59,0,0,0-.68-5.76C128.84,116.19,128.26,115.6,127.54,115.6Z"/>
    <path class="cls-1" d="M142.81,107.57v23a5,5,0,0,0-1.76-.22,6.46,6.46,0,0,0-1.64.29,3.47,3.47,0,0,0-1.19.67l-.44-.26a3.16,3.16,0,0,0,.18-.84c0-.27,0-.55,0-.83V111.14a4.05,4.05,0,0,0-.38-2,1.5,1.5,0,0,0-1.41-.64v-.62c.63.06,1.25.09,1.85.09.91,0,1.76,0,2.55-.11A19.3,19.3,0,0,0,142.81,107.57Zm4.55,7.44a4.64,4.64,0,0,1,3.76,1.86q1.5,1.86,1.5,5.73a11.88,11.88,0,0,1-.93,5.13,5.76,5.76,0,0,1-2.5,2.72,7.92,7.92,0,0,1-5.48.54,4.26,4.26,0,0,1-1.71-1l.39-.29a3,3,0,0,0,1.07.7,3.26,3.26,0,0,0,1.16.22q1.51,0,2.25-1.86a16.54,16.54,0,0,0,.73-5.64,22.32,22.32,0,0,0-.29-4,4.53,4.53,0,0,0-.8-2.06,1.57,1.57,0,0,0-1.23-.61,2.38,2.38,0,0,0-1.69.73,2.81,2.81,0,0,0-.81,2l-.06-1.25a4.29,4.29,0,0,1,1.81-2.15A5.56,5.56,0,0,1,147.36,115Z"/>
    <path class="cls-1" d="M158.4,131.05a4.47,4.47,0,0,1-2.26-.52,3.13,3.13,0,0,1-1.31-1.39,4.14,4.14,0,0,1-.42-1.84,3.42,3.42,0,0,1,.58-2.06,4.48,4.48,0,0,1,1.5-1.29,11.88,11.88,0,0,1,1.94-.82l1.93-.64a5.17,5.17,0,0,0,1.49-.74,1.33,1.33,0,0,0,.56-1.12v-2.47a3.82,3.82,0,0,0-.19-1.23,1.93,1.93,0,0,0-.68-1,2.2,2.2,0,0,0-1.36-.38,3.68,3.68,0,0,0-1,.15,2.4,2.4,0,0,0-.89.48,2.76,2.76,0,0,1,1.41,1,2.46,2.46,0,0,1,.46,1.46,2.15,2.15,0,0,1-.76,1.74,2.66,2.66,0,0,1-1.8.64,2.16,2.16,0,0,1-1.74-.72,2.58,2.58,0,0,1-.61-1.72,2.43,2.43,0,0,1,.45-1.5A4.23,4.23,0,0,1,157,116a6.52,6.52,0,0,1,2.08-.74,13.4,13.4,0,0,1,2.59-.24,10.88,10.88,0,0,1,2.57.28,4.09,4.09,0,0,1,2,1.12,3.14,3.14,0,0,1,.84,1.66,15.54,15.54,0,0,1,.17,2.5v8a2.63,2.63,0,0,0,.14,1,.45.45,0,0,0,.43.29,1,1,0,0,0,.51-.15l.47-.33.33.51a4.57,4.57,0,0,1-1.55.81,6.3,6.3,0,0,1-1.93.29,4.41,4.41,0,0,1-1.86-.32,1.89,1.89,0,0,1-1-.84,2.81,2.81,0,0,1-.32-1.19,5.34,5.34,0,0,1-1.63,1.71A4.51,4.51,0,0,1,158.4,131.05Zm2.47-2.15a1.76,1.76,0,0,0,.84-.19,1.92,1.92,0,0,0,.7-.67v-6.19a3.32,3.32,0,0,1-.64.79c-.26.25-.55.5-.84.74a9.38,9.38,0,0,0-.85.82,3.66,3.66,0,0,0-.66,1.06,3.83,3.83,0,0,0-.25,1.47,2.38,2.38,0,0,0,.48,1.67A1.57,1.57,0,0,0,160.87,128.9Zm3.92-22.43a1.47,1.47,0,0,1,.58,1.19,2,2,0,0,1-.49,1.37,4.54,4.54,0,0,1-1.14,1c-.47.31-1,.68-1.65,1.12a25.65,25.65,0,0,0-2.32,1.85l-.33-.27a20.56,20.56,0,0,0,1.23-2.74c.25-.73.46-1.36.64-1.87a3.86,3.86,0,0,1,.81-1.37,1.93,1.93,0,0,1,1.26-.69A1.72,1.72,0,0,1,164.79,106.47Z"/>
    <path class="cls-1" d="M181.07,115a5.47,5.47,0,0,1,2.07.33,3.14,3.14,0,0,1,1.23.83,3.47,3.47,0,0,1,.69,1.47,11.1,11.1,0,0,1,.21,2.4v8a3,3,0,0,0,.34,1.7,1.44,1.44,0,0,0,1.2.44v.63l-1.66-.08c-.74,0-1.45,0-2.15,0s-1.48,0-2.2,0l-1.6.08v-.63a1.06,1.06,0,0,0,1-.44,3.51,3.51,0,0,0,.28-1.7v-9.46a5.71,5.71,0,0,0-.11-1.18,1.38,1.38,0,0,0-.42-.74,1.3,1.3,0,0,0-.86-.25,2.4,2.4,0,0,0-1.24.35,2.54,2.54,0,0,0-.92,1,3,3,0,0,0-.34,1.44v8.84a3.84,3.84,0,0,0,.26,1.7,1.07,1.07,0,0,0,1,.44v.63l-1.52-.08c-.68,0-1.36,0-2.05,0s-1.63,0-2.44,0l-1.85.08v-.63a1.84,1.84,0,0,0,1.39-.44,2.69,2.69,0,0,0,.4-1.7v-9.4a3.93,3.93,0,0,0-.39-2,1.49,1.49,0,0,0-1.4-.64v-.62c.64.06,1.25.08,1.85.08.89,0,1.74,0,2.54-.1a19.48,19.48,0,0,0,2.22-.31v2.41a4.13,4.13,0,0,1,1.86-1.92A5.88,5.88,0,0,1,181.07,115Zm9,0a5.38,5.38,0,0,1,2.06.33,3.18,3.18,0,0,1,1.24.83,3.46,3.46,0,0,1,.68,1.47,11.1,11.1,0,0,1,.21,2.4v8a2.62,2.62,0,0,0,.4,1.7,1.84,1.84,0,0,0,1.39.44v.63l-1.77-.08c-.79,0-1.55,0-2.28,0s-1.49,0-2.2,0l-1.61.08v-.63a1.07,1.07,0,0,0,1-.44,3.51,3.51,0,0,0,.28-1.7v-9.46a4.08,4.08,0,0,0-.15-1.18,1.41,1.41,0,0,0-.49-.74,1.66,1.66,0,0,0-1-.25,2.12,2.12,0,0,0-1.23.4,2.83,2.83,0,0,0-.92,1,3.73,3.73,0,0,0-.4,1.46l-.18-1.48a4.45,4.45,0,0,1,2.11-2.27A7,7,0,0,1,190,115Z"/>
    <path class="cls-1" d="M203.62,115.1v13a2.69,2.69,0,0,0,.4,1.7,1.84,1.84,0,0,0,1.39.44v.63l-1.74-.08c-.79,0-1.57,0-2.37,0s-1.6,0-2.42,0l-1.86.08v-.63a1.83,1.83,0,0,0,1.38-.44,2.62,2.62,0,0,0,.4-1.7v-9.4a4.07,4.07,0,0,0-.37-2,1.49,1.49,0,0,0-1.41-.64v-.62c.63.06,1.25.08,1.84.08.89,0,1.74,0,2.55-.1A19,19,0,0,0,203.62,115.1ZM201,107.66a3.46,3.46,0,0,1,2.19.62,2.19,2.19,0,0,1,.79,1.82,2.15,2.15,0,0,1-.79,1.81,4.1,4.1,0,0,1-4.37,0,2.15,2.15,0,0,1-.79-1.81,2.19,2.19,0,0,1,.79-1.82A3.45,3.45,0,0,1,201,107.66Z"/>
    <path class="cls-1" d="M207.28,107.57a10.84,10.84,0,0,1,4.08.63,4,4,0,0,1,2.2,2.12,10.09,10.09,0,0,1,.68,4.12,36.79,36.79,0,0,0,.2,4.35,4.72,4.72,0,0,0,.68,2.18,1.81,1.81,0,0,0,1.39.7h.14v.54h-.14a1.81,1.81,0,0,0-1.39.71,4.9,4.9,0,0,0-.68,2.19,36.4,36.4,0,0,0-.2,4.33,10.55,10.55,0,0,1-.68,4.25,3.93,3.93,0,0,1-2.2,2.13,11.1,11.1,0,0,1-4.08.61v-.56a2.49,2.49,0,0,0,1.07-.2,1.37,1.37,0,0,0,.66-.83,7.31,7.31,0,0,0,.33-1.92c.06-.85.08-2,.08-3.48a8.93,8.93,0,0,1,.54-3.33,5.79,5.79,0,0,1,1.43-2.17,6.4,6.4,0,0,1,2-1.3,12.66,12.66,0,0,1,2.39-.7,12.66,12.66,0,0,1-2.39-.7,6.55,6.55,0,0,1-2-1.29,6,6,0,0,1-1.43-2.17,9,9,0,0,1-.54-3.34c0-1.4,0-2.53-.08-3.36a6.87,6.87,0,0,0-.33-1.87,1.46,1.46,0,0,0-.66-.84,2.79,2.79,0,0,0-1.07-.23Z"/>
  </g>
</svg>
